<?xml version="1.0" encoding="UTF-8"?>
<svg id="a" xmlns="http://www.w3.org/2000/svg" viewBox="0 0 33.3 20">
  <style>
    .logo-main { fill: #0031ff; }
    .logo-circle { 
      fill: black;
      animation: blink 2s infinite;
    }
    @keyframes blink {
      0%, 49% { fill: black; }
      50%, 100% { fill: transparent; }
    }
  </style>
  <path class="logo-main" d="M11.7,13.3c-4.6,0-8.3-1.5-8.3-3.3s3.7-3.3,8.3-3.3,8.3,1.5,8.3,3.3C20,4.5,15.5,0,10,0S0,4.5,0,10s4.5,10,10,10,10-4.5,10-10c0,1.8-3.7,3.3-8.3,3.3h0Z"/>
  <circle class="logo-circle" cx="11.7" cy="10" r="3.3"/>
  <path class="logo-main" d="M20,10c0,5.5,3,10,6.6,10s5.4-2.9,6.3-6.8c-.9,0-1.9.2-3,.2-5.5,0-9.9-1.5-9.9-3.3h0Z"/>
  <path class="logo-main" d="M29.9,6.7c1,0,2,0,3,.2-.9-4-3.4-6.8-6.3-6.8s-6.6,4.5-6.6,10c0-1.8,4.4-3.3,9.9-3.3h0Z"/>
  <circle class="logo-circle" cx="29.9" cy="10" r="3.3"/>
</svg>