<?xml version="1.0" standalone="no"?>
<!DOCTYPE svg PUBLIC "-//W3C//DTD SVG 20010904//EN"
 "http://www.w3.org/TR/2001/REC-SVG-20010904/DTD/svg10.dtd">
<svg version="1.0" xmlns="http://www.w3.org/2000/svg"
 width="4167.000000pt" height="4167.000000pt" viewBox="0 0 4167.000000 4167.000000"
 preserveAspectRatio="xMidYMid meet">
<metadata>
Created by potrace 1.14, written by Peter Selinger 2001-2017
</metadata>
<g transform="translate(0.000000,4167.000000) scale(0.100000,-0.100000)"
fill="#000000" stroke="none">
<path d="M12091 33359 c-2627 -87 -5145 -998 -7241 -2618 -1232 -952 -2298
-2158 -3100 -3506 -218 -367 -477 -863 -644 -1235 -619 -1374 -964 -2743
-1082 -4290 -21 -279 -30 -1163 -15 -1471 133 -2676 1080 -5173 2752 -7254
462 -576 1034 -1167 1594 -1649 1913 -1645 4269 -2672 6765 -2950 555 -62 945
-80 1565 -73 462 6 679 16 1055 52 2280 219 4468 1068 6305 2449 829 623 1600
1369 2244 2171 1355 1687 2246 3672 2596 5786 72 432 133 997 153 1409 l8 155
7 -115 c4 -63 11 -216 17 -340 80 -1670 400 -3357 922 -4855 1287 -3690 3701
-6183 6433 -6639 333 -56 578 -76 936 -76 272 0 428 9 684 40 1693 205 3318
1207 4628 2852 1059 1330 1884 3033 2396 4948 76 283 176 698 169 705 -2 2
-87 -5 -188 -15 -290 -30 -885 -78 -1230 -100 -585 -37 -1496 -71 -1809 -69
l-126 1 140 18 c1282 170 2390 897 3058 2007 302 503 487 1052 564 1673 25
207 25 724 0 935 -124 1017 -572 1903 -1311 2594 -637 594 -1425 964 -2321
1087 -93 12 -74 13 275 9 804 -10 1816 -69 2723 -158 l228 -23 -7 40 c-3 22
-41 182 -84 355 -783 3166 -2391 5737 -4440 7096 -682 452 -1427 775 -2144
930 -1025 220 -2024 164 -3021 -170 -288 -96 -485 -178 -790 -329 -567 -281
-1069 -622 -1595 -1081 -187 -163 -626 -606 -802 -807 -860 -986 -1558 -2151
-2113 -3527 -698 -1732 -1099 -3667 -1185 -5730 -10 -242 -20 -328 -20 -175 0
105 -26 461 -50 704 -268 2628 -1364 5106 -3134 7080 -708 789 -1496 1471
-2386 2065 -1708 1140 -3649 1835 -5695 2040 -550 55 -1115 73 -1684 54z
m25072 -8356 c-7 -2 -19 -2 -25 0 -7 3 -2 5 12 5 14 0 19 -2 13 -5z m680 0
c-7 -2 -19 -2 -25 0 -7 3 -2 5 12 5 14 0 19 -2 13 -5z m-23728 -14 c-711 -90
-1389 -356 -1953 -766 -884 -645 -1483 -1600 -1666 -2658 -45 -264 -59 -437
-59 -730 0 -383 34 -668 123 -1022 267 -1065 950 -1986 1895 -2557 497 -300
1062 -495 1655 -571 l115 -14 -245 5 c-1495 30 -3054 210 -4405 509 -2411 533
-4192 1420 -4973 2476 -269 364 -403 722 -419 1119 -32 817 538 1614 1650
2309 1683 1052 4517 1756 7607 1891 351 15 376 16 570 17 145 0 163 -1 105 -8z
m1440 1 c1690 -66 3193 -269 4595 -620 1683 -422 3000 -1012 3880 -1738 146
-121 412 -388 514 -516 302 -378 470 -773 494 -1159 44 -703 -316 -1359 -1084
-1977 -1469 -1182 -4283 -2024 -7524 -2249 -466 -33 -1123 -62 -1340 -60 l-85
1 140 18 c946 125 1794 548 2455 1226 658 674 1049 1493 1167 2444 14 113 18
218 18 475 0 257 -4 362 -18 475 -65 521 -199 965 -426 1415 -628 1239 -1822
2082 -3203 2260 l-103 13 130 1 c72 0 247 -4 390 -9z m21405 -6 c-1228 -165
-2291 -831 -2965 -1859 -605 -921 -817 -2030 -600 -3120 292 -1457 1357 -2662
2774 -3135 250 -83 559 -153 821 -184 l115 -14 -135 -1 c-294 -2 -1062 26
-1645 60 -3807 221 -7132 1045 -8905 2207 -766 501 -1216 1044 -1337 1612 -26
121 -26 449 0 570 122 571 560 1104 1322 1606 1699 1120 4830 1928 8485 2188
522 38 896 56 1585 79 44 2 195 3 335 4 l255 1 -105 -14z"/>
</g>
</svg>
